<?xml version="1.0" encoding="UTF-8"?>
<svg xmlns="http://www.w3.org/2000/svg" viewBox="0 0 1200 630" width="1200" height="630">
  <defs>
    <linearGradient id="g46107" x1="83.4565303179429%" y1="12.842758726130285%" x2="16.543469682057086%" y2="87.15724127386972%">
      <stop offset="0%" stop-color="#7C3AED"/>
      <stop offset="100%" stop-color="#6D28D9"/>
    </linearGradient>
  </defs>
  <rect width="1200" height="630" fill="url(#g46107)"/>
  <rect x="230.01383179798722" y="168.35528634488583" width="174.53218640293926" height="28" rx="6" fill="rgba(255,255,255,0.1061090401886031)" stroke="rgba(255,255,255,0.1)" stroke-width="1"/><rect x="390.15865102410316" y="213.35528634488583" width="316.43837441224605" height="28" rx="6" fill="rgba(255,255,255,0.11759599445387721)" stroke="rgba(255,255,255,0.1)" stroke-width="1"/><rect x="280.7513853069395" y="258.3552863448858" width="390.61937564983964" height="28" rx="6" fill="rgba(255,255,255,0.06313376017380505)" stroke="rgba(255,255,255,0.1)" stroke-width="1"/><rect x="223.61661759205163" y="303.3552863448858" width="208.35132510401309" height="28" rx="6" fill="rgba(255,255,255,0.09999048419762402)" stroke="rgba(255,255,255,0.1)" stroke-width="1"/><rect x="335.6130786705762" y="348.3552863448858" width="254.04005704913288" height="28" rx="6" fill="rgba(255,255,255,0.11565001401118934)" stroke="rgba(255,255,255,0.1)" stroke-width="1"/><rect x="848.1526349671185" y="163.43467766884714" width="20" height="20" rx="4" fill="rgba(255,255,255,0.15)" stroke="rgba(255,255,255,0.12)" stroke-width="1.5"/><path d="M 852.1526349671185 173.43467766884714 L 857.1526349671185 179.43467766884714 L 865.1526349671185 168.43467766884714" fill="none" stroke="rgba(255,255,255,0.3)" stroke-width="2"/><line x1="878.1526349671185" y1="173.43467766884714" x2="978.1526349671185" y2="173.43467766884714" stroke="rgba(255,255,255,0.08)" stroke-width="2"/><rect x="848.1526349671185" y="203.43467766884714" width="20" height="20" rx="4" fill="rgba(255,255,255,0.15)" stroke="rgba(255,255,255,0.12)" stroke-width="1.5"/><path d="M 852.1526349671185 213.43467766884714 L 857.1526349671185 219.43467766884714 L 865.1526349671185 208.43467766884714" fill="none" stroke="rgba(255,255,255,0.3)" stroke-width="2"/><line x1="878.1526349671185" y1="213.43467766884714" x2="978.1526349671185" y2="213.43467766884714" stroke="rgba(255,255,255,0.08)" stroke-width="2"/><rect x="848.1526349671185" y="243.43467766884714" width="20" height="20" rx="4" fill="rgba(255,255,255,0.15)" stroke="rgba(255,255,255,0.12)" stroke-width="1.5"/><path d="M 852.1526349671185 253.43467766884714 L 857.1526349671185 259.43467766884714 L 865.1526349671185 248.43467766884714" fill="none" stroke="rgba(255,255,255,0.3)" stroke-width="2"/><line x1="878.1526349671185" y1="253.43467766884714" x2="978.1526349671185" y2="253.43467766884714" stroke="rgba(255,255,255,0.08)" stroke-width="2"/><rect x="848.1526349671185" y="283.43467766884714" width="20" height="20" rx="4" fill="rgba(255,255,255,0.15)" stroke="rgba(255,255,255,0.12)" stroke-width="1.5"/><path d="M 852.1526349671185 293.43467766884714 L 857.1526349671185 299.43467766884714 L 865.1526349671185 288.43467766884714" fill="none" stroke="rgba(255,255,255,0.3)" stroke-width="2"/><line x1="878.1526349671185" y1="293.43467766884714" x2="978.1526349671185" y2="293.43467766884714" stroke="rgba(255,255,255,0.08)" stroke-width="2"/><circle cx="200" cy="499.13019481115043" r="18" fill="rgba(255,255,255,0.06)" stroke="rgba(255,255,255,0.12)" stroke-width="1.5"/><line x1="222" y1="499.13019481115043" x2="398" y2="499.13019481115043" stroke="rgba(255,255,255,0.1)" stroke-width="1.5" stroke-dasharray="6 4"/><circle cx="420" cy="499.13019481115043" r="18" fill="rgba(255,255,255,0.06)" stroke="rgba(255,255,255,0.12)" stroke-width="1.5"/><line x1="442" y1="499.13019481115043" x2="618" y2="499.13019481115043" stroke="rgba(255,255,255,0.1)" stroke-width="1.5" stroke-dasharray="6 4"/><circle cx="640" cy="499.13019481115043" r="18" fill="rgba(255,255,255,0.06)" stroke="rgba(255,255,255,0.12)" stroke-width="1.5"/><line x1="662" y1="499.13019481115043" x2="838" y2="499.13019481115043" stroke="rgba(255,255,255,0.1)" stroke-width="1.5" stroke-dasharray="6 4"/><circle cx="860" cy="499.13019481115043" r="18" fill="rgba(255,255,255,0.06)" stroke="rgba(255,255,255,0.12)" stroke-width="1.5"/>
  <circle cx="310.7532788068056" cy="485.3184101334773" r="2.486056881491095" fill="rgba(255,255,255,0.04760825418168679)"/><circle cx="1122.0994848757982" cy="51.12248705467209" r="2.006503072101623" fill="rgba(255,255,255,0.03596373415319249)"/><circle cx="838.3688824251294" cy="324.9798426241614" r="2.1803855765610933" fill="rgba(255,255,255,0.06426288175396622)"/><circle cx="1102.7046203613281" cy="157.27191670099273" r="1.0856517017818987" fill="rgba(255,255,255,0.06184779240982607)"/><circle cx="881.703832000494" cy="287.72952859522775" r="1.6259058057330549" fill="rgba(255,255,255,0.05052140295272693)"/><circle cx="755.1395016722381" cy="144.60447405232117" r="1.1853430974297225" fill="rgba(255,255,255,0.07740619574440644)"/><circle cx="233.23677498847246" cy="452.09357915678993" r="2.8369373665191233" fill="rgba(255,255,255,0.0501154254260473)"/><circle cx="621.4628144167364" cy="530.3505095327273" r="2.0574532421305776" fill="rgba(255,255,255,0.05792939449427649)"/><circle cx="293.1709206663072" cy="487.6757025299594" r="1.415131148416549" fill="rgba(255,255,255,0.033143354412168265)"/><circle cx="420.08729903027415" cy="13.320400449447334" r="1.3650685846805573" fill="rgba(255,255,255,0.06617439131485298)"/><circle cx="33.40266700834036" cy="405.507425875403" r="2.9448272977024317" fill="rgba(255,255,255,0.03265654064714908)"/><circle cx="37.95214807614684" cy="358.664444941096" r="2.75682863779366" fill="rgba(255,255,255,0.03977578995516524)"/><circle cx="761.9657563045621" cy="526.467268508859" r="1.0790324048139155" fill="rgba(255,255,255,0.058104085254017265)"/><circle cx="750.1110387034714" cy="414.3695120816119" r="1.4111227276735008" fill="rgba(255,255,255,0.038956868783570825)"/><circle cx="413.8791197910905" cy="332.71437822142616" r="2.3544363384135067" fill="rgba(255,255,255,0.04412441274151206)"/><circle cx="545.7606023177505" cy="589.7308628680184" r="2.3419719180092216" fill="rgba(255,255,255,0.07771285796305165)"/><circle cx="860.284183267504" cy="232.59822303196415" r="2.9425477739423513" fill="rgba(255,255,255,0.03532591685187071)"/><circle cx="65.942841488868" cy="465.3057232196443" r="1.5570961576886475" fill="rgba(255,255,255,0.07066966981627047)"/><circle cx="775.86530148983" cy="462.89708139840513" r="1.4715479123406112" fill="rgba(255,255,255,0.03538953449577093)"/><circle cx="11.991912871599197" cy="71.26884235767648" r="2.7176295784302056" fill="rgba(255,255,255,0.030294168316759167)"/>
  <text x="600" y="335" font-family="system-ui, -apple-system, 'Segoe UI', sans-serif" font-size="68" font-weight="700" fill="rgba(0,0,0,0.15)" text-anchor="middle" letter-spacing="1">CAPM</text>
  <text x="600" y="332" font-family="system-ui, -apple-system, 'Segoe UI', sans-serif" font-size="68" font-weight="700" fill="white" text-anchor="middle" letter-spacing="1">CAPM</text>
  <g transform="translate(1140, 575)">
    <rect x="0" y="0" width="40" height="40" rx="8" fill="rgba(255,255,255,0.15)"/>
    <text x="20" y="29" font-family="sans-serif" font-weight="bold" font-size="24" fill="rgba(255,255,255,0.6)" text-anchor="middle">K</text>
  </g>
</svg>